<svg xmlns="http://www.w3.org/2000/svg" viewBox="0 0 200 172">
  <ellipse cx="100" cy="164" opacity=".35" rx="86" ry="8"/>
  <g stroke="#000" stroke-linejoin="round" stroke-width="3">
    <rect width="184" height="76" x="8" y="86" fill="#8B5A2B" rx="6"/>
    <path fill="#FFBF00" d="M6 86h188v14H6zm0 58h188v14H6z"/>
    <path fill="#7D7D7D" d="M90 86h20v76H90z"/>
    <circle cx="34" cy="93" r="3.2" fill="gold" stroke-width="1.5"/>
    <circle cx="166" cy="93" r="3.2" fill="gold" stroke-width="1.5"/>
    <circle cx="34" cy="151" r="3.2" fill="gold" stroke-width="1.5"/>
    <circle cx="166" cy="151" r="3.2" fill="gold" stroke-width="1.5"/>
    <path fill="#2b2b2b" stroke="gold" stroke-width="1.721" d="M93.94 106.17a5.96 5.96 0 1 1 11.92 0 5.96 5.96 0 0 1-2.384 4.769l1.639 7.897h-10.43l1.638-7.897a5.96 5.96 0 0 1-2.384-4.768z"/>
  </g>
</svg>
