<svg xmlns="http://www.w3.org/2000/svg" viewBox="0 0 1280 1280">
  <path fill="#fc0" d="M683.645 172.181c-6.368 4.143-9.782 11.163-13.968 17.222-27.193 41.45-53.898 83.21-80.2 125.222q257.244 351.069 514.483 702.14c16.815-56.92 34.652-113.521 53.229-169.888 28.397-86.091 58.288-171.761 87.614-257.574 1.846-5.549 4.294-11.095 4.157-17.046.076-5.498-2.44-11.275-7.438-13.945-6.058-3.437-13.44-2.653-19.953-.967-41.445 9.879-82.96 19-124.769 26.942-49.931 9.45-100.33 16.987-150.568 24.912-10.869 1.66-21.708 3.522-32.586 5.107-18.164 1.75-36.71-8.173-45.475-23.98-3.198-6.15-5.208-12.822-7.964-19.168-47.539-119.29-95.145-238.528-141.222-358.383-4.11-10.5-7.921-21.125-12.292-31.516-2.522-5.225-6.7-10.378-12.722-11.494-3.565-.71-7.31.509-10.326 2.417zM567.58 349.869c-16.124 26.123-32.077 52.348-47.988 78.6l495.382 660.553c11.297-.063 22.598.037 33.894-.117 16.486-1.071 31.272-10.639 39.722-24.637.906-2.512 2.491-5.849 3.49-8.037-173.896-237.317-347.69-473.78-521.583-711.1zM497.42 465.2c-26.795 44.5-53.427 89.098-80.241 133.586-5.745 8.784-14.777 15.087-24.627 18.504l-3.276 1.277q182.551 234.834 365.11 469.66c72.435.424 144.873.717 217.315.805q-235.71-314.3-471.416-628.598zM47.796 524.26c-4.99 3.216-6.818 9.565-6.378 15.189.267 5.38 2.306 10.425 3.626 15.588 26.508 91.146 52.147 182.607 75.028 274.774 18.185 72.864 34.983 146.033 51.99 219.178 4.834 16.93 19.872 30.154 37.08 33.671 7.55 1.39 15.278.623 22.912.954 106.85 1.195 213.7 2.271 320.554 3.177-140.917-181.28-281.842-362.554-422.761-543.832-21.502-6.782-42.989-13.624-64.53-20.274-5.748-1.461-12.316-1.817-17.52 1.574z"/>
  <path fill="#ffe063" d="m124.646 548.437 418.44 538.27c73.602.618 147.2 1.15 220.804 1.58l-367.3-472.479c-6.983 2.752-14.48 4.378-21.994 3.968-8.794-.39-16.843-4.234-25.187-6.57-77.39-24.685-154.677-49.69-232.121-74.236l7.358 9.469zM520.888 426.33a27016 27016 0 0 0-24.754 41.008l466.228 621.682c20.647-.004 41.295 0 61.943-.003A31981302 31981302 0 0 1 523.76 421.582zm69.925-113.83a9913 9913 0 0 0-24.549 39.49c174.197 237.727 348.126 474.608 522.319 712.337 2.231-5.503 4.785-10.154 6.215-15.927 3.865-13.563 7.847-27.095 11.834-40.624q-256.447-349.984-512.89-699.97z"/>
  <path fill="#b33224" d="m693.268 241.955 101.366 265.728a41.2 41.204 58.011 0 1-3.906 37.07l-116.878 180.6a12.477 12.477 58.011 0 1-21.413-.772l-101.12-184.15a40.555 40.559 58.011 0 1-.98-37.14L676.74 241.255a9.006 9.006 58.011 0 1 16.527.702z"/>
  <path fill="#34b224" stroke="#34b224" stroke-width="2.612" d="m283.891 750.349-136.399-45.072a25.35 25.569 58.011 0 1-16.202-16.536L91.333 558.3a6.534 6.591 58.011 0 1 8.508-8.14l137.59 48.047a25.88 26.105 58.011 0 1 16.13 16.743l38.91 127.053a6.672 6.73 58.011 0 1-8.58 8.347z"/>
  <path fill="#2a8fad" d="m958.624 775.379 52.726-134.192a23.044 23.244 58.011 0 1 17.681-14.465l153.61-27.314a6.891 6.95 58.011 0 1 7.478 9.613l-55.066 120.947a27.067 27.302 58.011 0 1-18.108 15.203l-150.417 39.083a6.678 6.736 58.011 0 1-7.904-8.875"/>
</svg>
