<svg xmlns="http://www.w3.org/2000/svg" fill="currentColor" viewBox="0 0 24 24">
  <path d="M12 0C5.37 0 0 5.5 0 12.3c0 5.44 3.44 10.05 8.21 11.68.6.11.82-.27.82-.6 0-.29-.01-1.07-.02-2.1-3.34.75-4.04-1.65-4.04-1.65-.55-1.43-1.34-1.81-1.34-1.81-1.09-.77.08-.76.08-.76 1.2.09 1.84 1.26 1.84 1.26 1.07 1.87 2.81 1.33 3.5 1.02.11-.79.42-1.33.76-1.64-2.67-.31-5.47-1.37-5.47-6.1 0-1.35.47-2.45 1.24-3.31-.12-.31-.54-1.57.12-3.27 0 0 1.01-.33 3.3 1.26a11.2 11.2 0 0 1 6.01 0c2.29-1.59 3.3-1.26 3.3-1.26.66 1.7.24 2.96.12 3.27.77.86 1.24 1.96 1.24 3.31 0 4.74-2.81 5.78-5.49 6.08.43.38.81 1.13.81 2.28 0 1.65-.01 2.98-.01 3.38 0 .33.22.72.83.6 4.76-1.6 8.19-6.2 8.19-11.64C24 5.5 18.63 0 12 0"/>
</svg>
