<svg xmlns="http://www.w3.org/2000/svg" xml:space="preserve" width="800" height="800" viewBox="0 0 297.117 297.117">
  <path d="M294.853 140.217a16.9 16.9 0 0 0-14.598-8.423c-2.945 0-5.855.781-8.416 2.259a16.75 16.75 0 0 0-6.84 7.505H249.07l-39.061-19.499 13.715-7.918 8.84 7.063a7.47 7.47 0 0 0 4.677 1.641 7.499 7.499 0 0 0 4.686-13.359l-4.254-3.398 10.855-6.268 6.693 1.793a7.5 7.5 0 0 0 8.255-3.199l8.423-13.146a7.5 7.5 0 0 0 .18-7.796 7.51 7.51 0 0 0-6.841-3.742l-15.598.72a7.5 7.5 0 0 0-6.898 5.551l-1.852 6.91-10.484 6.053-.548-4.254a7.497 7.497 0 0 0-8.396-6.48 7.5 7.5 0 0 0-6.48 8.396l1.348 10.465-13.897 8.023 2.656-42.832 8.778-15.647q.508.033 1.02.034a16.87 16.87 0 0 0 8.417-2.258c8.039-4.646 10.805-14.968 6.163-23.014a16.9 16.9 0 0 0-14.597-8.421c-2.945 0-5.854.78-8.413 2.258-8.045 4.646-10.811 14.968-6.168 23.009q.272.47.571.917l-8.97 15.692-35.333 23.251V66.626l10.424-4.016c3.857-1.511 5.844-5.861 4.334-9.718s-5.987-5.761-9.843-4.251l-4.916 1.876V37.81l4.784-4.616c2.31-2.309 2.943-5.848 1.443-8.749l-7.131-13.87a7.47 7.47 0 0 0-6.641-4.055 7.48 7.48 0 0 0-6.651 4.054l-7.169 13.868c-1.501 2.901-1.116 6.439 1.194 8.749l5.172 5.338v11.944l-4.069-1.769c-3.821-1.596-8.132.207-9.727 4.031-1.596 3.822.084 8.215 3.906 9.811l9.89 4.182v15.988l-36.183-24.103-9.683-15.101c1.546-2.545 2.495-5.52 2.495-8.709 0-9.289-7.536-16.846-16.824-16.846s-16.834 7.557-16.834 16.846S72.09 51.65 81.378 51.65q.879 0 1.734-.089l9.676 14.957 2.569 42.344L82 101.15l1.696-11.186a7.5 7.5 0 1 0-14.83-2.25l-.816 5.382-10.857-6.269-1.792-6.689a7.5 7.5 0 0 0-6.897-5.551l-15.597-.723a7.53 7.53 0 0 0-6.842 3.741 7.5 7.5 0 0 0 .18 7.796l8.421 13.148a7.5 7.5 0 0 0 8.255 3.2l6.912-1.851 10.484 6.053-3.41 2.602a7.499 7.499 0 0 0 4.555 13.463 7.47 7.47 0 0 0 4.543-1.537l8.39-6.4 13.54 7.817-39.514 19.661H32.116a16.73 16.73 0 0 0-6.841-7.505 16.86 16.86 0 0 0-8.414-2.259 16.9 16.9 0 0 0-14.597 8.423A16.74 16.74 0 0 0 .581 153a16.73 16.73 0 0 0 7.847 10.227 16.85 16.85 0 0 0 8.417 2.26 16.9 16.9 0 0 0 14.597-8.425c.096-.165.169-.337.259-.505h18.982l37.311 18.626-13.494 7.791-8.842-7.063a7.5 7.5 0 0 0-10.541 1.18 7.5 7.5 0 0 0 1.18 10.541l4.253 3.396-10.855 6.268-6.692-1.792a7.51 7.51 0 0 0-8.254 3.198l-8.424 13.145a7.5 7.5 0 0 0 6.659 11.539l15.597-.718a7.5 7.5 0 0 0 6.899-5.55l1.853-6.912 10.483-6.054.548 4.254a7.501 7.501 0 1 0 14.877-1.916l-1.348-10.465 13.406-7.74-2.648 42.723-8.425 16.453c-.122-.003-.244-.013-.367-.013-2.944 0-5.853.78-8.415 2.259-8.042 4.645-10.808 14.967-6.164 23.013 3 5.195 8.594 8.422 14.597 8.422 2.945 0 5.854-.78 8.413-2.258a16.74 16.74 0 0 0 7.85-10.229 16.73 16.73 0 0 0-1.683-12.78c-.29-.502-.61-.98-.947-1.445l8.16-16.26 35.888-23.839v15.94l-10.649 4.233c-3.857 1.51-5.678 5.861-4.168 9.718 1.159 2.96 4.031 4.769 7.028 4.769.909 0 1.688-.167 2.586-.518l5.203-2.094v12.367l-5.009 5.177c-2.31 2.31-2.775 5.848-1.275 8.748l7.215 13.868a7.53 7.53 0 0 0 6.682 4.055h.011a7.51 7.51 0 0 0 6.666-4.054l7.178-13.868c1.501-2.9.787-6.439-1.523-8.749l-4.945-4.781v-12.267l3.844 1.535c3.818 1.594 8.298-.209 9.894-4.031s-.334-8.215-4.156-9.811l-9.582-3.949v-15.537l35.535 23.452 11.715 17.38c-1.495 2.529-2.329 5.466-2.33 8.599.004 9.284 7.601 17.044 16.885 17.044h.006c9.286 0 16.842-7.71 16.842-16.995 0-9.289-7.556-16.996-16.847-16.996-.653 0-1.296.047-1.931.121l-11.475-17.145-2.582-42.572 13.848 7.995-1.696 11.189a7.5 7.5 0 0 0 7.425 8.625 7.5 7.5 0 0 0 7.405-6.377l.816-5.383 10.856 6.269 1.793 6.69a7.5 7.5 0 0 0 6.898 5.551l15.596.723q.174.008.348.008a7.499 7.499 0 0 0 6.315-11.544l-8.42-13.149a7.5 7.5 0 0 0-8.257-3.2l-6.911 1.852-10.483-6.053 3.408-2.6a7.5 7.5 0 1 0-9.096-11.928l-8.391 6.399-13.761-7.945 37.249-18.533h18.098c.09.168.163.34.259.505a16.9 16.9 0 0 0 14.596 8.425h.001c2.946 0 5.856-.781 8.413-2.259a16.73 16.73 0 0 0 7.85-10.227 16.74 16.74 0 0 0-1.682-12.786M189.127 78.661l-2.529 39.452-30.039 17.295v-35.324zm-80.743-.054 33.174 22.107v35.014l-30.877-17.875zm-40.251 69.898 35.389-17.608 30.591 17.662-30.546 17.635zm40.159 69.951 2.344-39.167 30.922-17.901v34.963zm80.742.053-32.476-21.424V161.71l29.995 17.27zm5.449-52.416-30.37-17.535 30.325-17.508 35.179 17.561z" style="fill:#b7f0f0;fill-opacity:.94520545"/>
</svg>
