<svg xmlns="http://www.w3.org/2000/svg" id="svg1" width="800" height="800" viewBox="0 0 24 24">
    <defs id="defs1">
        <style id="style1">.cls-1{fill:none;stroke:#020202;stroke-miterlimit:10;stroke-width:1.92px}</style>
    </defs>
    <g id="roll_brush">
        <path id="polyline1" d="M9.41 12.68 19.66 2.44l2.39 2.4-10.27 10.27Z" class="cls-1" style="fill:#401a13;stroke:#020202;stroke-width:1.92px;stroke-miterlimit:10;fill-opacity:1"/>
        <path id="path1" d="M5.43 13.57c-1.49 1.5-.16 3.67-3 6.55a8.86 8.86 0 0 0 4.14.49A7.57 7.57 0 0 0 10.86 19a3.84 3.84 0 0 0 1-3.7 3.7 3.7 0 0 0-1-1.73 3.8 3.8 0 0 0-1.73-1 3.84 3.84 0 0 0-3.7 1Z" class="cls-1" style="fill:#eab308;fill-opacity:1"/>
    </g>
</svg>
