<svg xmlns="http://www.w3.org/2000/svg" xml:space="preserve" viewBox="0 0 1280 1280">
  <rect width="1282.994" height="1278.503" x="-2.994" y="1.497" ry="245.52" style="fill:#000;fill-opacity:1"/>
  <path fill="#903602" d="M377.421 930.182a22.498 24.175 0 0 0-23.77 22.729 23.769 25.54 0 0 0 23.77 25.539h539.877a22.498 24.175 0 0 0 23.768-22.727 23.769 25.54 0 0 0-23.768-25.541H814.441v35.963H691.802v-35.963zm120.2-89.231v19.398h-61.278v.69a12.546 15.944 0 0 0 12.545 15.945h405.23a12.546 15.944 0 0 0 12.545-15.945v-4.143a12.546 15.944 0 0 0-12.546-15.945zm380.833-68.635c-3.472-.039-6.865.113-10.258.602 6.108 23.653 25.322 66.48 31.465 73.972 9.808 10.475 28.063 16.381 48.492 20.903 6.272 1.387 13.93 6.918 16.506 12.8 11.802 26.949 9.21 44.848 33.196 64.932 1.757 1.634 3.684 3.02 5.738 4.219v-68.627h9.431c-3.565-10.887-8.137-23.258-15.136-34.358-5.027-7.97-17.51-16.6-26.446-19.642-16.284-5.545-29.508-7.811-39.09-11.82-7.246-2.672-16.768-28.1-18.357-41.403-13.994.373-25.124-1.462-35.54-1.578M1049.232 968.4c7.988 5.316 25.054 34.218 27.39 51.574.62 4.607-4.004 9.702-8.41 11.303l-305.598 110.982c-36.434 13.959-64.045 21.617-85.79 25.084v48.182h-122.64v-69.817a794 794 0 0 1-9.166-3.45l-125.963-45.745v41.158h-71.388l253.264 116.59c17.184 7.424 34.992 13.168 52.886 17.399 17.895-4.231 35.697-9.975 52.881-17.399l137.182-63.15v-57.264h122.64v.807l145.011-66.756c8.496-3.911 16.632-14.72 15.143-23.873-3.155-19.397-13.154-49.91-25.154-75.625zm-858.69 39.23c-4.553 13.623-7.963 26.468-9.578 36.398-1.49 9.154 6.645 19.963 15.14 23.873l100.316 46.18v-62.101l-56.994-20.7c-4.407-1.6-9.03-6.696-8.41-11.302.498-3.704 1.667-7.934 3.276-12.348zm184.44-192.204c-9.559 3.93-22.672 6.206-38.782 11.691-8.935 3.043-21.419 11.673-26.446 19.643-12.044 19.1-16.903 41.966-21.81 54.55-.939 2.409-2.926 6.134-4.633 8.071-7.119 8.082-17.768 8.81-28.92 10.129a47 47 0 0 0-4.746.834h27.777v38.469c11.35-3.287 23.858-5.38 32.362-13.287 23.984-20.085 21.395-37.984 33.197-64.932 2.576-5.882 10.236-11.413 16.508-12.8 9.413-2.084 18.362-4.462 26.238-7.444h-10.745zm54.202-43.11c-4.31.048-8.74.392-13.445.75h23.668l.037-.148c-3.393-.49-6.788-.64-10.26-.602"/>
  <path fill="#520" d="M691.802 930.182v35.963h122.64v-35.963zm-242.915-89.231a12.546 15.944 0 0 0-12.545 15.945v3.453h61.277v-19.398zm394.997 292.899v57.264l122.64-56.457v-.807zm159.708-252.733v68.627c14.205 8.296 34.41 7.67 45.547 18.592l.096.064h52.287c-7.432-15.926-15.632-30.012-23.45-38.478-5.14-5.569-17.213-9.513-24.82-10.412-11.153-1.319-21.807-2.048-28.925-10.13-1.707-1.937-3.692-5.662-4.63-8.07-2.056-5.271-4.103-12.346-6.673-20.193zM554.188 1145.71v69.816h122.64v-48.181c-8.509 1.356-16.118 2.071-23.007 2.271-22.99-.668-54.007-7.07-99.633-23.906m-257.767-93.73v62.102l51.25 23.593h71.39v-41.158zm-46.776-131.636c-7.204 1.624-15.916 5.068-20.08 9.578-13.976 15.137-29.176 48.241-39.024 77.705h43.75c5.96-16.354 17.95-35.24 24.207-39.29 4.956-4.86 11.706-7.434 18.924-9.524v-38.47zM415.74 773.066c-6.67.508-13.89 1.047-22.096.828-1.588 13.303-11.109 38.731-18.353 41.402l-.309.13v44.923h10.746c9.218-3.49 16.963-7.81 22.252-13.459 6.13-7.476 25.28-50.14 31.428-73.824z"/>
  <path fill="#fff" d="M429.691 676.336h453.346c8.538 0 15.46 6.921 15.46 15.459-.105 8.433-7.026 15.186-15.46 15.082H429.692c-8.538 0-15.458-6.92-15.458-15.458.103-8.433 7.024-15.186 15.458-15.083m236.097-370.46 5.336 28.304-189.005 8.398c-70.09 6.154-75.71 30.317-88.255 61.925l-3.03 60.54c137.456-1.022 309.323.142 381.011-1.05 24.816-.426 44.39 1.576 63.127 18.873l-21.08 1.406 4.216 120.855h49.185l-2.81-99.776 22.66 1.348 2.178 98.057 32.78.37-1.648-104.957 21.87-.286 1.78 128.068c3.243 32.573 7.6 31.77 23.962 42.63 11.906 7.16 22.406 11.386 27.574 23.387 4.42 15.832-3.987 55.629-12.132 67.566-9.65 16.159-35.59 17.129-58.27 18.891-162.625 1.468-298.26 3.457-530.687 2.716-29.555-5.526-52.455-1.542-82.156-26.96-4.753-18.235-6.33-29.11-4.765-47.597 1.247-14.72 12.777-26.176 26.51-36.377 22.752-8.022 27.603-17.463 32.081-41.138l-3.153-165.456c-3.028-56.587.245-89.27 43.967-130.104 21.97-26.286 208.335-29.046 258.754-29.632zM393.135 484.662l1.008 119.707 32.684-.37 2.457-119.726zm57.23-.389-2.81 120.855h49.183l4.216-120.855zm71.67 0-2.812 120.855h73.075l2.81-120.855zm95.56 0-2.812 120.855h89.938l-2.81-120.855zm106.8 0 2.81 120.855h73.076l-2.81-120.855zm-330.052 147.51c-2.93 17.075-1.245 40.45-14.356 53.1-5.823 4.627-16.032 7.377-24.705 12.234-8.103 4.85-10.597 10.222-11.837 21.189-2.407 21.296 25.505 25.177 39.655 28.16 243.627.447 359.653 4.104 552.875-1.56 14.517-1.435 27.326 2.183 27.601-25.096-.07-17.926-12.579-20.255-16.16-21.317 0 0-15.25-5.83-19.148-17.863l-13.682-43.07z"/>
  <path fill="#fc0" d="M1030.892 33.307c-4.069.075-7.612 2.315-11.233 3.893-24.116 11.211-48.1 22.705-71.97 34.429l34.494 469.02c23.791-21.27 47.957-42.103 72.391-62.617 37.332-31.323 75.222-62.027 112.896-92.957 2.413-2.015 5.1-3.855 6.726-6.622 1.594-2.497 2.091-5.865.578-8.52-1.777-3.308-5.353-5.061-8.79-6.153-21.633-7.336-43.082-15.039-64.33-23.366-25.367-9.962-50.402-20.933-75.476-31.681-5.409-2.35-10.86-4.6-16.253-6.987-8.749-4.397-14.359-14.253-13.856-24.006.293-3.733 1.273-7.365 1.822-11.063 12.252-68.272 24.46-136.54 37.537-204.653 1.113-5.988 2.396-11.948 3.36-17.96.336-3.117-.1-6.674-2.52-8.909-1.417-1.346-3.465-1.86-5.377-1.848zM927.74 81.512c-14.738 7.356-29.427 14.808-44.105 22.283l37.617 444.496c5.15 3.205 10.256 6.485 15.431 9.648 7.795 4.228 17.227 4.075 25.038.08 1.125-.893 2.792-1.968 3.866-2.685-11.66-158.526-23.518-316.632-35.177-475.158zm-64.602 32.769c-24.8 12.723-49.556 25.538-74.362 38.25-5.103 2.38-10.995 2.684-16.44 1.43l-1.85-.352q16.298 159.866 32.601 319.73a25019 25019 0 0 0 98.502 62.57l-35.796-422.992zM642.107 12.65c-3.18.046-5.813 2.433-7.209 5.136-1.405 2.541-1.91 5.437-2.776 8.18-13.82 49.356-28.127 98.608-43.886 147.393-12.415 38.596-25.546 76.934-38.575 115.32-2.608 9.143.471 19.507 7.29 26.044 3.037 2.798 6.765 4.659 10.14 6.995a63188 63188 0 0 0 144.732 93.208c-12.58-123.407-25.165-246.814-37.746-370.22-7.845-9.263-15.665-18.549-23.565-27.762-2.196-2.315-5.079-4.358-8.406-4.294"/>
  <path fill="#ffe063" d="m670.16 45.727 37.36 366.436c33.264 21.35 66.55 42.66 99.867 63.923l-32.795-321.648c-3.954-.737-7.822-2.139-11.119-4.477-3.884-2.696-6.45-6.761-9.578-10.22-28.155-33.463-56.173-67.043-84.39-100.459zm214.67 57.459c-7.633 3.894-15.259 7.8-22.884 11.707l35.403 418.338 28.142 17.729q-19.007-224.564-38.01-449.127zm64.07-32.149a5291 5291 0 0 0-22.36 11.07c11.681 158.8 23.481 317.136 35.16 475.936 2.576-1.883 5.055-3.283 7.343-5.52 5.605-5.109 11.254-10.17 16.905-15.228l-34.387-467.57z"/>
  <path fill="#b33224" d="M1015.462 68.033 986.11 218.82a22.071 22.26 0 0 1-12.294 15.87l-104.349 49.308a6.684 6.741 0 0 1-9.509-6.483l6.315-113.332a21.726 21.912 0 0 1 10.095-17.3l131.784-83.901a4.825 4.866 0 0 1 7.31 5.052z"/>
  <path fill="#34b224" stroke="#34b224" stroke-width="1.405" d="m685.21 183.833-49.178-59.696a13.7 13.7 0 0 1-2.669-12.215l18.862-71.213a3.53 3.53 0 0 1 6.175-1.295l48.876 61.4a13.98 13.98 0 0 1 2.577 12.29l-18.375 69.36a3.605 3.605 0 0 1-6.268 1.37z"/>
  <path fill="#2a8fad" d="m984.652 388.432 62.033-46.403a12.45 12.45 0 0 1 12.137-1.568l77.54 31.45a3.723 3.723 0 0 1 .67 6.547l-59.34 39.663a14.62 14.62 0 0 1-12.54 1.784l-79.429-25.144a3.608 3.608 0 0 1-1.072-6.33z"/>
  <rect width="220.544" height="219.489" x="51.396" y="847.663" fill="#22c55e" rx="12.8"/>
  <rect width="220.544" height="219.489" x="287.696" y="847.261" fill="#334155" rx="12.8"/>
  <rect width="220.544" height="219.489" x="523.396" y="848.031" fill="#eab308" rx="12.8"/>
  <rect width="220.544" height="219.489" x="762.62" y="848.577" fill="#eab308" rx="12.8"/>
  <rect width="220.544" height="219.489" x="1019.88" y="847.891" fill="#334155" rx="12.8" transform="translate(-16.468)"/>
  <g fill="#fff" font-family="'Plus Jakarta Sans'" font-size="194.472" font-weight="bold">
    <path d="m237.58 887.463-51.56 141.391h-40.832L93.626 887.463h38.268l34.184 99.325 34.185-99.325z" aria-label="V"/>
    <path d="M476.7 1028.972h-37.697l-9.78-28.582h-52.417l-9.78 28.582h-36.749l52.226-141.391h41.971zm-56.309-54.505-17.377-50.707-17.377 50.707z" aria-label="A"/>
    <path d="M693.982 1018.892q-9.495 3.703-25.163 7.406-15.668 3.609-31.241 3.609-36.084 0-56.5-19.561-20.415-19.657-20.415-54.22 0-32.951 20.605-53.082 20.606-20.226 57.45-20.226 13.958 0 26.587 2.564 12.63 2.469 28.107 9.97v33.14h-4.083q-2.658-1.994-7.786-5.602-5.128-3.703-9.876-6.267-5.507-3.039-12.914-5.223-7.312-2.184-15.573-2.184-9.685 0-17.567 2.849t-14.148 8.736q-5.983 5.697-9.496 14.528-3.419 8.737-3.419 20.226 0 23.455 12.44 35.894t36.748 12.44q2.09 0 4.558-.095 2.564-.095 4.653-.285V975.78h-28.202v-26.683h65.235z" aria-label="G"/>
    <path d="M945.632 974.17q0 26.207-15.953 40.166t-47.004 13.959q-31.05 0-47.003-13.96-15.858-13.958-15.858-40.07V883.96h36.653v88.215q0 14.718 6.172 21.935 6.173 7.217 20.036 7.217 13.674 0 19.941-6.932 6.362-6.932 6.362-22.22V883.96h36.654z" aria-label="U"/>
    <path d="M1173.1 1027.945h-102.27V886.554h102.27v27.348h-65.996v24.404h61.248v27.347h-61.248v34.944h65.995z" aria-label="E"/>
  </g>
</svg>
